# xmcd CD database file
#
# Track frame offsets:
#	150
#	3705
#	41887
#	67558
#	87998
#	107360
#	158226
#	162273
#	214134
#
# Disc length: 2962 seconds
#
# Revision: 0
# Processed by: cddbd v1.5.2PL0 Copyright (c) Steve Scherf et al.
# Submitted via: CDex 1.51
#
DISCID=6b0b9009
DTITLE=Dizzy Gillespie Sextet - Live at the 1965 Monterey Jazz Festival
DYEAR=1965
DGENRE=Jazz
TTITLE0=Dizzy Gillespie Sextet - Introduction
TTITLE1=Dizzy Gillespie Sextet - Trinidad, Goodbye
TTITLE2=Dizzy Gillespie Sextet - Day After
TTITLE3=Dizzy Gillespie Sextet - Poor Joe
TTITLE4=Dizzy Gillespie Sextet - Dizzy's Comedy Sketch
TTITLE5=Dizzy Gillespie Sextet - Night in Tunisia
TTITLE6=Dizzy Gillespie Sextet - Band Introduction
TTITLE7=Dizzy Gillespie Sextet - Ungawa
TTITLE8=Dizzy Gillespie Sextet - Chega de Saudade (No More Blues)
EXTD=YEAR: 1965
EXTT0=
EXTT1=
EXTT2=
EXTT3=
EXTT4=
EXTT5=
EXTT6=
EXTT7=
EXTT8=
PLAYORDER=
